<?xml version="1.0" encoding="UTF-8"?>
<svg xmlns="http://www.w3.org/2000/svg" xmlns:xlink="http://www.w3.org/1999/xlink" width="4in" height="4in" version="1.1" viewBox="0 0 32 32">
  <path id="b" d="m16.5 21.5h-6v-4c0-2-2-2-2-4 0-1-2 0-2 2a5.667 5.667 0 0 0 3 5h-4a5.667 5.667 0 0 1-3-5a8 6 0 0 1 8-6h3v-2s-1 0-1-1-1-1-1-2a2 3 0 0 1 2-3h3m-8 29a10 10 0 0 1 2-11h4a10 10 0 0 0-2 11z"
  fill="#fa5" stroke="#fa5"/>
  <use transform="matrix(-1,0,0,1,32,0)" xlink:href="#b"/>
  <path d="m14 5.5h1m2 0h1m-4.5-2h5" stroke="#000" stroke-linecap="square"/>
  <path d="m16 11.5a4.5 4 0 0 1-4.5 4m4.5-4a4.5 4 0 0 0 4.5 4" fill="none" stroke="#000" stroke-linecap="square" stroke-width=".7"/>
</svg>
