<?xml version="1.0" encoding="UTF-8"?>
<svg xmlns="http://www.w3.org/2000/svg" xmlns:xlink="http://www.w3.org/1999/xlink" width="4in" height="4in" version="1.1" viewBox="0 0 32 32">
  <path id="b" d="m17 21.5h-6.5v-4c0-2-2-2-2-4v-4h5v-2s-1 0-1-1-1-1-1-2 .5-3 2-3h3m-11 20a7.5 7.5 0 0 1 0-12h4a7.5 7.5 0 0 0 0 12zm3 9a10 10 0 0 1 2-11h4a10 10 0 0 0-2 11z" fill="#fa5" stroke="#fa5"/>
  <use transform="matrix(-1,0,0,1,32,0)" xlink:href="#b"/>
  <path d="m13.5 3.5h5m-4.5 2h1m2 0h1m-2 6a4.5 4 0 0 1-4.5 4m4.5-4a4.5 4 0 0 0 4.5 4" fill="none" stroke="#00a" stroke-linecap="square"/>
</svg>
